<svg id="SvgjsSvg1000" xmlns="http://www.w3.org/2000/svg" version="1.1" xmlns:xlink="http://www.w3.org/1999/xlink" xmlns:svgjs="http://svgjs.com/svgjs" width="93" height="61" viewBox="0 0 93 61"><title>quote_icon</title><desc>Created with Avocode.</desc><defs id="SvgjsDefs1001"></defs><path id="SvgjsPath1007" d="M506.926 2030.97C490.99 2030.97 477.315 2040.31 471.452 2053.63C475.37 2049.75 480.836 2047.3400000000001 486.892 2047.3400000000001C498.808 2047.3400000000001 508.467 2056.6600000000003 508.467 2068.17C508.467 2079.67 498.808 2089 486.892 2089C474.976 2089 465.316 2079.67 465.316 2068.17C465.316 2045.98 483.94599999999997 2028 506.926 2028C507.777 2028 508.467 2028.66 508.467 2029.48C508.467 2030.3 507.777 2030.97 506.926 2030.97ZM422.136 2053.63C427.999 2040.3100000000002 441.67400000000004 2030.97 457.61100000000005 2030.97C458.46100000000007 2030.97 459.15100000000007 2030.3 459.15100000000007 2029.48C459.15100000000007 2028.66 458.46100000000007 2028 457.61100000000005 2028C434.629 2028 416.00000000000006 2045.98 416.00000000000006 2068.17C416.00000000000006 2079.67 425.6600000000001 2089 437.5760000000001 2089C449.4920000000001 2089 459.15100000000007 2079.67 459.15100000000007 2068.17C459.15100000000007 2056.66 449.4920000000001 2047.3400000000001 437.5760000000001 2047.3400000000001C431.5200000000001 2047.3400000000001 426.05500000000006 2049.75 422.1360000000001 2053.63Z " fill="#1c1c1c" fill-opacity="1" transform="matrix(1,0,0,1,-416,-2028)"></path></svg>